<?xml version="1.0" encoding="UTF-8"?>
<svg version="1.1" xmlns="http://www.w3.org/2000/svg" width="444" height="440">
<path d="M0 0 C2.58259199 2.58259199 2.86055507 4.60474515 3.76953125 8.140625 C3.93087051 8.76663101 4.09220978 9.39263702 4.25843811 10.03761292 C4.78636844 12.10605138 5.30089827 14.17746557 5.8125 16.25 C6.0780368 17.31593887 6.0780368 17.31593887 6.34893799 18.40341187 C10.07802476 33.46068986 12.94696849 48.61768877 15 64 C15.0921579 64.69022247 15.1843158 65.38044495 15.27926636 66.09158325 C16.88684636 78.50164631 17.34313114 90.79810671 17.31567383 103.30541992 C17.31251352 106.29968754 17.33609311 109.29296262 17.36132812 112.28710938 C17.49343953 153.00305305 7.43523311 194.22942575 -21.625 224.125 C-40.64877559 243.02504371 -68.62046522 255.13311127 -95.4375 256.375 C-98.62631598 256.28881578 -99.82206408 256.10591424 -102.625 254.4375 C-104.51692977 251.0836245 -104.33327538 248.81234516 -104 245 C-102.453125 242.40234375 -102.453125 242.40234375 -100.25 239.9375 C-99.00863281 238.51050781 -99.00863281 238.51050781 -97.7421875 237.0546875 C-96.82868399 236.03595681 -95.91461007 235.01773735 -95 234 C-65.03185935 200.07907235 -31.17529052 156.53325529 -32 109 C-32.66 109 -33.32 109 -34 109 C-34.15927979 109.58555664 -34.31855957 110.17111328 -34.48266602 110.77441406 C-36.44881744 117.68540586 -39.02943385 124.18526685 -41.9375 130.75 C-42.65885132 132.37929443 -42.65885132 132.37929443 -43.39477539 134.04150391 C-56.78937942 163.79046295 -74.28582789 191.49805313 -97 215 C-97.47115234 215.49693359 -97.94230469 215.99386719 -98.42773438 216.50585938 C-118.08328396 237.21110453 -118.08328396 237.21110453 -126.8125 238.375 C-131.13695692 237.86624036 -132.23724426 236.30377693 -135 233 C-148.23448452 199.17397281 -144.80694682 154.73467766 -130.75 121.75 C-118.65021005 94.68713648 -97.49889133 75.47647137 -72.13256836 61.12524414 C-59.06889445 53.69439742 -47.17120939 45.04171038 -36 35 C-35.27554688 34.35933594 -34.55109375 33.71867187 -33.8046875 33.05859375 C-24.90638956 24.71869102 -17.54709977 14.0439177 -12.31640625 3.07421875 C-9.18269416 -1.86347004 -5.26383243 -1.16974054 0 0 Z " fill="#082231" transform="translate(383,124)"/>
<path d="M0 0 C2.76171875 1.96875 2.76171875 1.96875 5.6875 4.5 C23.44811522 18.91878785 45.95873168 23.66514453 67.875 28 C78.18355522 30.04402936 87.5593644 32.32885218 97 37 C97.94875 37.44859375 98.8975 37.8971875 99.875 38.359375 C126.14457167 51.64341977 142.97159156 75.61799994 152.91015625 102.65625 C157.05104227 115.36090388 162.35155413 131.65802445 160 145 C158 148.1875 158 148.1875 155 150 C149.47645815 149.66348169 144.65798957 148.44775305 139.5 146.4375 C138.81421875 146.17356445 138.1284375 145.90962891 137.421875 145.63769531 C102.61709543 131.90314498 69.16068602 106.30305774 46 77 C45.01 76.505 45.01 76.505 44 76 C58.58372025 112.95167704 93.54253704 135.66324817 127.24902344 154.09399414 C137.0371275 159.4965315 137.0371275 159.4965315 138.9375 164.4375 C139.0252284 168.03436429 138.4122569 169.30394817 136 172 C119.19971488 180.2467931 93.8056034 177.40810495 76.66015625 171.93359375 C45.01755204 160.53322624 24.64141909 135.80426115 10.71875 106.23046875 C-2.51261818 77.14237122 -12.20802477 41.92836951 -12.3125 9.75 C-12.32925781 8.52796875 -12.34601563 7.3059375 -12.36328125 6.046875 C-12 3 -12 3 -10.66796875 1.140625 C-6.93838941 -1.40981333 -4.21163977 -1.1217191 0 0 Z " fill="#072231" transform="translate(80,216)"/>
<path d="M0 0 C1.74828575 1.35060701 3.47947615 2.72382304 5.1875 4.125 C5.82300781 4.64578125 6.45851563 5.1665625 7.11328125 5.703125 C18.64415116 16.20019278 25.69208801 31.32461676 26.625 46.76171875 C27.22188716 64.72581146 24.00861987 80.42436715 11.875 94.3125 C10.33048201 95.93398732 8.76832466 97.5388883 7.1875 99.125 C6.49914062 99.8365625 5.81078125 100.548125 5.1015625 101.28125 C-7.29289305 113.26102116 -23.29032363 117.65771787 -40.15039062 117.47460938 C-58.8502575 116.88776029 -73.03449867 109.21609172 -85.8125 96.125 C-86.41707031 95.54105469 -87.02164063 94.95710938 -87.64453125 94.35546875 C-99.04495264 82.47376307 -102.30828846 66.05841923 -102.15991211 50.24780273 C-101.70976234 32.76624397 -94.92227076 18.03945826 -82.59765625 5.71484375 C-59.96547362 -15.3302293 -25.34944731 -17.85512842 0 0 Z " fill="#FFFBCC" transform="translate(241.8125,118.875)"/>
<path d="M0 0 C1.74828575 1.35060701 3.47947615 2.72382304 5.1875 4.125 C5.82300781 4.64578125 6.45851563 5.1665625 7.11328125 5.703125 C18.64415116 16.20019278 25.69208801 31.32461676 26.625 46.76171875 C27.22188716 64.72581146 24.00861987 80.42436715 11.875 94.3125 C10.33048201 95.93398732 8.76832466 97.5388883 7.1875 99.125 C6.49914062 99.8365625 5.81078125 100.548125 5.1015625 101.28125 C-7.29289305 113.26102116 -23.29032363 117.65771787 -40.15039062 117.47460938 C-58.8502575 116.88776029 -73.03449867 109.21609172 -85.8125 96.125 C-86.41707031 95.54105469 -87.02164063 94.95710938 -87.64453125 94.35546875 C-99.04495264 82.47376307 -102.30828846 66.05841923 -102.15991211 50.24780273 C-101.70976234 32.76624397 -94.92227076 18.03945826 -82.59765625 5.71484375 C-59.96547362 -15.3302293 -25.34944731 -17.85512842 0 0 Z M-74.125 20.3125 C-83.2487564 31.32845228 -86.42100948 43.39781898 -86.19140625 57.46484375 C-84.83165557 70.59975501 -77.95098488 82.75322139 -67.8125 91.125 C-61.5415173 95.61938052 -55.28147783 98.30361769 -47.8125 100.125 C-47.17699219 100.30675781 -46.54148438 100.48851562 -45.88671875 100.67578125 C-34.41590255 103.16004465 -23.06184115 100.03230563 -12.95703125 94.5859375 C-1.55026481 87.12290581 5.90804827 76.98808406 9.5 63.875 C12.23397792 49.03719751 9.58816822 36.07579854 1.15625 23.66015625 C-6.381762 13.95347016 -16.87908327 7.88852808 -28.8125 5.125 C-46.30577872 3.34836979 -61.65260894 7.22360291 -74.125 20.3125 Z " fill="#FFF9A3" transform="translate(241.8125,118.875)"/>
<path d="M0 0 C1.86856079 0.20568848 1.86856079 0.20568848 4 1 C5.16195679 3.01794434 5.16195679 3.01794434 6.10302734 5.70898438 C6.46375336 6.71513794 6.82447937 7.7212915 7.19613647 8.75793457 C7.57227081 9.85875366 7.94840515 10.95957275 8.3359375 12.09375 C8.73777252 13.22840698 9.13960754 14.36306396 9.55361938 15.53210449 C10.84260748 19.18293024 12.10904236 22.84113232 13.375 26.5 C14.21987563 28.90546774 15.06621346 31.31042243 15.9140625 33.71484375 C17.54923157 38.35796171 19.17171074 43.00520302 20.78417969 47.65625 C22.14895335 51.58524631 23.5388392 55.50228948 24.97363281 59.40625 C25.26315826 60.19994995 25.55268372 60.9936499 25.85098267 61.81140137 C26.37462724 63.24104167 26.90532108 64.66812963 27.44467163 66.09191895 C29.11131301 70.66606097 29.11131301 70.66606097 28 74 C27.01 74 26.02 74 25 74 C21.30652698 64.00974555 17.64626626 54.00756422 14 44 C13.51203949 42.66201355 13.51203949 42.66201355 13.01422119 41.29699707 C10.92614909 35.56883839 8.84774442 29.83729582 6.78005981 24.10174561 C6.0923579 22.19782616 5.40198018 20.29487113 4.70895386 18.3928833 C3.73104173 15.70717341 2.76281085 13.01816137 1.796875 10.328125 C1.34928581 9.10822372 1.34928581 9.10822372 0.89265442 7.86367798 C0.20366837 5.92883534 -0.40636221 3.96619225 -1 2 C-0.67 1.34 -0.34 0.68 0 0 Z " fill="#D3D3D3" transform="translate(161,30)"/>
<path d="M0 0 C0.99 0.99 1.98 1.98 3 3 C-4.0759887 14.87693222 -11.22841288 26.70189831 -18.54296875 38.43359375 C-21.07304634 42.49276627 -23.56764178 46.57211093 -26.05078125 50.66015625 C-27.40874348 52.87767195 -28.76681437 55.09512112 -30.125 57.3125 C-31.08466675 58.90723145 -31.08466675 58.90723145 -32.0637207 60.53417969 C-32.664021 61.5090332 -33.26432129 62.48388672 -33.8828125 63.48828125 C-34.67776123 64.79599487 -34.67776123 64.79599487 -35.48876953 66.13012695 C-35.98747559 66.74718506 -36.48618164 67.36424316 -37 68 C-37.99 68 -38.98 68 -40 68 C-41 65 -41 65 -40.17407227 63.14428711 C-39.50202759 62.09640015 -39.50202759 62.09640015 -38.81640625 61.02734375 C-38.30891846 60.22321045 -37.80143066 59.41907715 -37.27856445 58.59057617 C-36.71226318 57.71506104 -36.14596191 56.8395459 -35.5625 55.9375 C-34.35860847 54.03694367 -33.15552044 52.13587819 -31.953125 50.234375 C-31.31052734 49.22439453 -30.66792969 48.21441406 -30.00585938 47.17382812 C-26.55385477 41.71179552 -23.18875359 36.19654692 -19.8125 30.6875 C-17.21051625 26.45698783 -14.60576546 22.22818375 -12 18 C-11.45553223 17.11650879 -10.91106445 16.23301758 -10.35009766 15.32275391 C-8.94506661 13.0464138 -7.53606554 10.77260283 -6.125 8.5 C-5.72643799 7.85377686 -5.32787598 7.20755371 -4.91723633 6.54174805 C-3.41364224 4.12856821 -2.01830497 2.01830497 0 0 Z " fill="#D3D3D3" transform="translate(286,49)"/>
<path d="M0 0 C1.73852539 0.24682617 1.73852539 0.24682617 4.09765625 0.79296875 C5.0220752 1.00550293 5.94649414 1.21803711 6.89892578 1.43701172 C8.46489502 1.80850342 8.46489502 1.80850342 10.0625 2.1875 C11.15546387 2.44289551 12.24842773 2.69829102 13.37451172 2.96142578 C33.63658347 7.7496662 53.81172008 12.91169625 74 18 C74 19.32 74 20.64 74 22 C66.08504005 21.28570148 58.47815496 19.2954125 50.78125 17.40234375 C49.31304234 17.04465987 47.8447383 16.68737144 46.37634277 16.33045959 C42.5351232 15.39568949 38.69522646 14.4555952 34.85559082 13.51434326 C30.9279575 12.55253411 26.9990825 11.59582522 23.0703125 10.63867188 C15.37899185 8.76407214 7.68906274 6.88383951 0 5 C-0.5625 3.0625 -0.5625 3.0625 -1 1 C-0.67 0.67 -0.34 0.34 0 0 Z " fill="#D3D3D3" transform="translate(63,126)"/>
<path d="M0 0 C-0.1730957 1.78540039 -0.1730957 1.78540039 -1 4 C-3.24291992 5.71655273 -3.24291992 5.71655273 -6.23046875 7.43359375 C-7.33390625 8.0769165 -8.43734375 8.72023926 -9.57421875 9.38305664 C-10.77841607 10.06827503 -11.98284824 10.75308085 -13.1875 11.4375 C-14.40952182 12.14264304 -15.63087138 12.84895234 -16.8515625 13.55639648 C-18.71942933 14.63828066 -20.58797057 15.71883936 -22.45956421 16.79426575 C-26.53297032 19.13647592 -30.56719474 21.53466866 -34.58203125 23.9765625 C-35.58403564 24.58314697 -36.58604004 25.18973145 -37.6184082 25.81469727 C-39.51030025 26.96220681 -41.3983089 28.11614839 -43.28198242 29.27709961 C-44.12736572 29.7850708 -44.97274902 30.29304199 -45.84375 30.81640625 C-46.57787109 31.26443604 -47.31199219 31.71246582 -48.06835938 32.17407227 C-50 33 -50 33 -53 32 C-52.81323242 30.20092773 -52.81323242 30.20092773 -52 28 C-49.84887695 26.37524414 -49.84887695 26.37524414 -46.98828125 24.78515625 C-45.40104248 23.8880896 -45.40104248 23.8880896 -43.78173828 22.97290039 C-42.63688965 22.34246826 -41.49204102 21.71203613 -40.3125 21.0625 C-38.5404035 20.07016911 -36.77069543 19.07366945 -35.00109863 18.07688904 C-33.79418761 17.39744458 -32.5864141 16.71953002 -31.37780762 16.04310608 C-27.38394299 13.80274274 -23.44065549 11.49137332 -19.51953125 9.125 C-18.52332764 8.52421631 -17.52712402 7.92343262 -16.50073242 7.30444336 C-14.61582253 6.16267988 -12.73433173 5.01524841 -10.85668945 3.86157227 C-10.00937256 3.35166748 -9.16205566 2.8417627 -8.2890625 2.31640625 C-7.55381348 1.86724854 -6.81856445 1.41809082 -6.06103516 0.95532227 C-4 0 -4 0 0 0 Z " fill="#D3D3D3" transform="translate(322,105)"/>
<path d="M0 0 C-2.42648069 2.87693197 -4.53812452 3.68446482 -8.14233398 4.64160156 C-9.71427773 5.066539 -9.71427773 5.066539 -11.31797791 5.50006104 C-13.01489525 5.9408902 -13.01489525 5.9408902 -14.74609375 6.390625 C-15.90875259 6.69949646 -17.07141144 7.00836792 -18.26930237 7.32659912 C-20.72841568 7.97701711 -23.18890522 8.62225057 -25.65063477 9.26269531 C-29.42288225 10.24618889 -33.18905422 11.25078317 -36.95507812 12.2578125 C-39.34341442 12.8866925 -41.73207608 13.51433841 -44.12109375 14.140625 C-45.25034775 14.44260803 -46.37960175 14.74459106 -47.54307556 15.0557251 C-48.59419022 15.32640808 -49.64530487 15.59709106 -50.72827148 15.87597656 C-51.65187973 16.11785706 -52.57548798 16.35973755 -53.52708435 16.60894775 C-56.06200029 17.00980436 -57.59366704 16.82143128 -60 16 C-59.505 14.515 -59.505 14.515 -59 13 C-56.81665039 12.03857422 -56.81665039 12.03857422 -53.78515625 11.1796875 C-52.6058252 10.84163086 -51.42649414 10.50357422 -50.21142578 10.15527344 C-48.80781558 9.7694598 -47.40399122 9.38442477 -46 9 C-44.35264772 8.53958154 -42.70535262 8.07895848 -41.05810547 7.61816406 C-36.47792596 6.34578936 -31.88869853 5.11004296 -27.29467773 3.88867188 C-25.37216454 3.37481891 -23.45127738 2.85484743 -21.53198242 2.32910156 C-18.73184067 1.56243275 -15.92731835 0.81436294 -13.12109375 0.0703125 C-12.26382187 -0.16807343 -11.40654999 -0.40645935 -10.52330017 -0.65206909 C-9.7246907 -0.85953766 -8.92608124 -1.06700623 -8.10327148 -1.28076172 C-7.40523911 -1.46855194 -6.70720673 -1.65634216 -5.98802185 -1.849823 C-3.46666073 -2.04028894 -2.13741481 -1.28100854 0 0 Z " fill="#D3D3D3" transform="translate(136,177)"/>
<path d="M0 0 C4.15559214 0.5180234 6.08110795 2.72159054 8.95703125 5.62890625 C9.42308273 6.0968309 9.88913422 6.56475555 10.36930847 7.04685974 C11.35528282 8.03954918 12.33765628 9.03582635 13.31665039 10.03540039 C14.79017479 11.53970839 16.27374478 13.03343657 17.75976562 14.52539062 C22.54768081 19.35335015 27.22016381 24.24382526 31.61791992 29.43237305 C33.11181543 31.18747452 33.11181543 31.18747452 35.5 33.25 C35.995 33.8275 36.49 34.405 37 35 C36.75 37.25 36.75 37.25 36 39 C28.24054376 35.75351486 22.53145366 27.70844765 17.203125 21.41015625 C15.27117407 19.29665674 13.28722438 17.3029759 11.234375 15.30859375 C10.55141357 14.64239014 9.86845215 13.97618652 9.16479492 13.28979492 C7.77764313 11.94388234 6.38209258 10.60656518 4.9777832 9.27856445 C4.33671631 8.65554443 3.69564941 8.03252441 3.03515625 7.390625 C2.4512915 6.83407227 1.86742676 6.27751953 1.26586914 5.70410156 C0 4 0 4 0 0 Z " fill="#D3D3D3" transform="translate(117,81)"/>
<path d="M0 0 C0.99 0.33 1.98 0.66 3 1 C2.43126414 10.62149912 1.4408036 20.08447469 0.0625 29.625 C-0.10701172 30.86378906 -0.27652344 32.10257813 -0.45117188 33.37890625 C-0.62068359 34.56613281 -0.79019531 35.75335938 -0.96484375 36.9765625 C-1.1155835 38.03955566 -1.26632324 39.10254883 -1.42163086 40.19775391 C-1.95844242 42.79865012 -2.68197158 44.71211459 -4 47 C-4.99 46.67 -5.98 46.34 -7 46 C-5.91763333 35.10512499 -4.52352752 24.27081365 -2.9375 13.4375 C-2.7631543 12.22989014 -2.58880859 11.02228027 -2.40917969 9.77807617 C-2.1582959 8.09161987 -2.1582959 8.09161987 -1.90234375 6.37109375 C-1.75273193 5.35974365 -1.60312012 4.34839355 -1.44897461 3.30639648 C-1 1 -1 1 0 0 Z " fill="#D3D3D3" transform="translate(223,53)"/>
</svg>
